<?xml version="1.0" encoding="UTF-8"?>
<svg width="446px" height="463px" viewBox="0 0 446 463" version="1.1" xmlns="http://www.w3.org/2000/svg" xmlns:xlink="http://www.w3.org/1999/xlink">
    <!-- Generator: Sketch 43.2 (39069) - http://www.bohemiancoding.com/sketch -->
    <title>Untitled</title>
    <desc>Created with Sketch.</desc>
    <defs></defs>
    <g id="Page-1" stroke="none" stroke-width="1" fill="none" fill-rule="evenodd">
        <g id="logo" fill-rule="nonzero" fill="#FFFFFF">
            <path d="M389.913692,394.619337 C347.267951,436.85089 288.175063,463 222.871624,463 C150.178082,463 85.1802655,430.597653 41.9981853,379.678568 C134.484179,455.55915 272.245707,450.810452 359.064945,365.432452 C417.567442,307.901123 417.567442,214.62441 359.064945,157.093082 C300.56245,99.5617533 205.711164,99.5617533 147.208668,157.093082 C122.13617,181.749366 122.13617,221.7251 147.208668,246.381383 C172.281166,271.037667 212.931717,271.037667 238.004216,246.381383 C246.361714,238.162622 259.911898,238.162622 268.269398,246.381383 C276.626898,254.600145 276.626898,267.925389 268.269398,276.14415 C226.481901,317.237956 158.730983,317.237956 116.943486,276.14415 C75.1559889,235.050344 75.1559889,168.424121 116.943486,127.330315 C192.16098,53.3614636 314.112634,53.3614636 389.330129,127.330315 C464.352665,201.107445 464.547118,320.604996 389.913484,394.619133 L389.913692,394.619337 L389.913692,394.619337 Z M403.745095,83.3214582 C311.259071,7.44085024 173.497541,12.1895467 86.6783033,97.5675474 C28.1758077,155.098876 28.1758077,248.37559 86.6783033,305.906919 C145.180799,363.438247 240.032084,363.438247 298.534582,305.906919 C323.607079,281.250635 323.607079,241.2749 298.534582,216.618617 C273.462082,191.962333 232.811532,191.962333 207.739033,216.618617 C199.381535,224.837378 185.83135,224.837378 177.473851,216.618617 C169.116351,208.399855 169.116351,195.074611 177.473851,186.855849 C219.261348,145.762043 287.012266,145.762043 328.799763,186.855849 C370.587261,227.949656 370.587261,294.575879 328.799763,335.669685 C253.582268,409.638536 131.630615,409.638536 56.4131208,335.669685 C-18.7068947,261.796694 -18.8042472,142.084396 56.1210632,68.0925934 C98.7443988,26.0301799 157.71686,0 222.871624,0 C295.565168,0 360.562983,32.402348 403.745064,83.321432 L403.745095,83.3214582 Z" id="Combined-Shape"></path>
        </g>
    </g>
</svg>