<?xml version="1.0" standalone="no"?>
<svg version="1.0" xmlns="http://www.w3.org/2000/svg"
 width="512.000000pt" height="512.000000pt" viewBox="0 0 512.000000 512.000000"
 preserveAspectRatio="xMidYMid meet">
<g transform="translate(0.000000,512.000000) scale(0.100000,-0.100000)"
fill="#000000" stroke="none">
<path d="M2369 5116 c-2 -2 -35 -7 -74 -10 -38 -3 -79 -8 -91 -10 -12 -2 -45
-7 -75 -11 -95 -12 -360 -83 -484 -130 -453 -170 -873 -482 -1142 -846 -195
-264 -346 -646 -379 -954 -3 -33 -8 -73 -10 -90 -5 -41 -5 -334 0 -365 3 -14
7 -47 11 -75 46 -386 225 -790 480 -1085 53 -62 208 -214 260 -255 28 -21 52
-42 55 -46 3 -4 56 -42 119 -83 293 -196 656 -324 1001 -353 456 -39 916 70
1308 309 177 108 393 295 490 426 87 118 173 296 197 407 2 11 6 31 9 45 16
72 21 126 21 240 0 145 -6 193 -38 310 -103 371 -393 673 -763 794 -83 27 -88
29 -164 41 -25 4 -54 9 -65 12 -32 6 -246 6 -295 -2 -64 -9 -223 -46 -235 -54
-5 -4 -32 -16 -60 -26 -154 -56 -367 -209 -422 -302 -69 -118 -14 -276 115
-330 45 -19 130 -18 176 1 21 9 64 38 95 65 157 136 311 192 506 186 190 -6
340 -70 471 -200 134 -133 201 -277 210 -454 11 -220 -61 -392 -232 -557 -547
-529 -1422 -602 -2061 -173 -223 151 -407 352 -533 585 -79 144 -158 387 -175
534 -4 30 -9 66 -11 80 -5 34 -5 267 0 305 3 17 8 53 12 80 4 28 8 55 9 60 2
6 8 37 15 70 32 154 131 384 228 527 111 164 224 282 448 465 51 42 228 160
299 201 40 22 228 115 296 145 107 48 356 121 515 151 80 15 100 18 239 35 70
9 478 7 525 -2 14 -3 48 -8 75 -11 275 -31 621 -143 890 -289 118 -64 262
-157 335 -215 94 -75 79 -53 -60 88 -314 317 -700 545 -1131 669 -109 31 -269
66 -354 76 -27 3 -66 8 -85 11 -40 6 -465 15 -471 10z"/>
<path d="M2797 4324 c-1 -1 -45 -5 -97 -9 -52 -3 -97 -8 -100 -10 -3 -2 -30
-6 -60 -10 -101 -12 -333 -76 -435 -120 -127 -55 -193 -86 -275 -133 -212
-121 -435 -309 -553 -467 -96 -128 -185 -334 -212 -490 -14 -82 -13 -309 1
-390 60 -337 257 -622 554 -802 136 -82 307 -141 462 -159 65 -8 235 -7 297 1
119 15 280 65 391 121 127 64 298 204 336 274 27 51 25 152 -3 206 -42 79
-119 125 -208 125 -70 0 -112 -19 -197 -91 -89 -75 -225 -143 -328 -164 -90
-19 -239 -15 -325 8 -215 57 -412 238 -483 443 -29 84 -33 105 -37 213 -10
240 97 445 325 620 25 19 47 38 50 41 15 17 139 94 221 137 144 77 350 147
484 167 23 3 52 8 65 11 14 3 93 7 175 9 191 5 295 -7 467 -50 280 -71 536
-216 749 -427 366 -361 538 -873 464 -1380 -45 -303 -182 -602 -380 -827 -348
-395 -892 -698 -1432 -796 -219 -40 -551 -56 -723 -35 -36 5 -87 11 -115 14
-417 52 -871 236 -1205 490 -96 72 -98 74 -60 31 312 -353 724 -617 1180 -758
100 -32 146 -44 235 -63 158 -34 316 -49 530 -49 318 0 484 24 775 112 179 54
435 165 540 234 14 9 57 36 95 60 39 24 106 70 150 103 433 323 715 732 834
1212 25 104 35 151 47 239 13 90 18 354 10 445 -38 396 -177 757 -414 1073
-349 466 -910 778 -1497 833 -67 6 -293 13 -298 8z"/>
</g>
</svg>
