<svg width="195" height="202" viewBox="0 0 195 202" fill="none" xmlns="http://www.w3.org/2000/svg">
<mask id="mask0_1_11" style="mask-type:alpha" maskUnits="userSpaceOnUse" x="20" y="31" width="175" height="171">
<path fill-rule="evenodd" clip-rule="evenodd" d="M20.9522 31.263H194.927V202H20.9522V31.263Z" fill="white"/>
</mask>
<g mask="url(#mask0_1_11)">
<path fill-rule="evenodd" clip-rule="evenodd" d="M20.9522 167.608C35.9665 178.873 52.642 185.828 71.1406 188.219C93.0462 191.048 113.882 187.366 133.429 176.975C145.938 170.331 156.911 161.789 165.112 150.016C185.814 120.299 176.811 78.2088 145.698 59.7492C124.771 47.3346 103.154 46.5869 81.305 57.0476C73.1538 60.9553 65.7487 66.2104 60.8143 74.0965C52.3393 87.6326 57.9846 106.318 72.5484 112.892C84.001 118.07 94.5595 116.292 104.062 108.103C108.398 104.364 113.262 103.976 117.042 107.143C121.428 110.818 121.568 116.885 117.218 121.096C110.292 127.811 101.986 132.022 92.5112 133.433C75.6879 135.937 61.1663 131.041 49.7138 118.352C33.2424 100.09 34.3898 72.1708 52.5505 55.1289C75.6386 33.4598 103.07 26.2579 133.401 34.7083C166.801 44.0193 187.658 66.5137 193.592 100.95C198.892 131.655 188.228 157.288 164.795 177.49C148.69 191.379 129.86 199.498 108.722 201.466C74.5053 204.64 45.4059 193.679 21.7406 168.567C21.459 168.264 21.2127 167.925 20.9522 167.608Z" fill="#2E3562"/>
</g>
<mask id="mask1_1_11" style="mask-type:alpha" maskUnits="userSpaceOnUse" x="0" y="0" width="175" height="173">
<path fill-rule="evenodd" clip-rule="evenodd" d="M0.000396729 0.114563H174.019V172.602H0.000396729V0.114563Z" fill="white"/>
</mask>
<g mask="url(#mask1_1_11)">
<path fill-rule="evenodd" clip-rule="evenodd" d="M173.8 34.4554C170.154 32.101 166.599 29.6039 162.86 27.4279C143.527 16.1124 122.663 11.4607 100.48 13.8008C73.4157 16.6618 50.3933 28.0343 32.8514 49.3025C21.8339 62.6513 17.75 78.4972 19.4216 95.8413C22.1302 123.887 43.7842 148.93 74.8687 153.389C95.9303 156.407 114.608 150.378 130.104 135.438C141.559 124.387 141.601 106.094 130.549 95.6059C119.651 85.275 103.887 84.8398 92.2201 94.5071C90.8306 95.6558 89.3635 96.8401 87.7412 97.5465C83.6714 99.3016 79.0867 97.7819 76.5897 94.1219C74.1775 90.5831 74.5513 85.8814 77.7253 82.5924C84.8846 75.1796 93.7437 71.0273 103.753 69.422C123.312 66.2899 142.829 76.2426 152.174 93.9364C161.704 111.98 158.163 134.375 143.111 148.751C124.447 166.588 102.095 174.821 76.5615 172.088C42.3312 168.428 17.9545 150.235 5.66745 117.666C-4.86333 89.7698 -0.546631 63.0365 17.1928 39.1143C30.298 21.4277 48.0022 9.79834 69.0285 4.24051C108.704 -6.24018 143.386 3.25594 172.594 32.5719C173.102 33.0927 173.546 33.6635 174.019 34.2129C173.948 34.2913 173.878 34.3698 173.8 34.4554Z" fill="#2E3562"/>
</g>
</svg>
